<svg width="194" height="356" viewBox="0 0 194 356" fill="white" xmlns="http://www.w3.org/2000/svg">
<path fill-rule="evenodd" clip-rule="evenodd" d="M188.417 127.957H188.403L188.408 127.942C188.411 127.951 188.414 127.957 188.417 127.957ZM5.0087 127.942C1.76145 116.684 0 107.695 0 96.9306C0 43.5215 43.299 0 96.7081 0C150.117 0 193.416 43.4482 193.416 96.8574C193.416 107.622 191.655 116.684 188.408 127.942C188.402 127.926 188.396 127.901 188.391 127.875C188.38 127.825 188.369 127.775 188.358 127.802C185.663 135.786 181.949 143.001 177.378 149.898C175.358 153.555 173.329 157.081 171.326 160.561C157.947 183.812 145.78 204.955 145.78 248.788C145.78 256.721 139.351 263.134 131.418 263.134H61.5197C53.5865 263.134 47.4247 256.735 47.4247 248.805V234.403C45.029 200.212 34.186 181.426 22.4162 161.034C20.3503 157.454 18.2558 153.826 16.1734 150.055C11.6027 143.158 7.7558 135.791 5.0607 127.807C5.04967 127.779 5.03777 127.829 5.02596 127.879C5.02014 127.903 5.01435 127.927 5.0087 127.942ZM5.0087 127.942L5.01283 127.957H4.99874C5.00199 127.957 5.00532 127.951 5.0087 127.942ZM137.971 270.434C142.401 270.434 145.991 274.025 145.991 278.455V279.314C145.991 283.744 142.401 287.334 137.971 287.334H55.4424C51.0154 287.334 47.4247 283.744 47.4247 279.314V278.455C47.4247 274.025 51.0154 270.434 55.4424 270.434H137.971ZM137.971 294.635C142.401 294.635 145.991 298.226 145.991 302.656V303.515C145.991 307.944 142.401 311.535 137.971 311.535H55.4424C51.0154 311.535 47.4247 307.944 47.4247 303.515V302.656C47.4247 298.226 51.0125 294.635 55.4424 294.635H137.971ZM145.991 326.856C145.991 322.426 142.401 318.836 137.971 318.836H55.4424C51.0125 318.836 47.4247 322.426 47.4247 326.856V327.715C47.4247 332.145 51.0154 335.736 55.4424 335.736H137.971C142.401 335.736 145.991 332.145 145.991 327.715V326.856ZM124.69 343.036C117.759 351.485 107.686 355.67 96.4687 355.67C85.2518 355.67 75.1783 351.485 68.2476 343.036H124.69ZM89.8475 149.786C89.8475 137.878 82.8389 128.031 73.7231 126.382C81.2509 129.069 86.7631 137.771 86.7631 148.092C86.7631 160.55 78.7161 170.641 68.8063 170.641C63.5994 170.641 58.9117 167.863 55.6288 163.405C59.0339 169.466 64.653 173.435 71.0204 173.435C81.4188 173.435 89.8475 162.84 89.8475 149.786ZM85.5263 18.8565C91.6951 21.7725 95.3445 28.1083 96.4286 36.2762V159.878C96.4286 160.031 96.5508 160.153 96.7035 160.153C96.8562 160.153 96.9784 160.031 96.9784 159.878V36.2762C96.9784 36.2304 96.9784 36.1998 96.9631 36.1693C98.0625 28.0473 101.712 21.7572 107.85 18.8565C122.02 12.1543 144.13 26.0015 157.201 49.8028C161.858 58.2912 164.744 66.8713 165.889 74.7338C165.339 65.7873 162.331 55.5432 156.804 45.4669C143.84 21.8641 121.913 8.10852 107.85 14.7649C100.765 18.1084 97.0242 25.9862 96.7035 36.0014H96.673C96.3523 25.9862 92.6113 18.1084 85.5263 14.7649C71.4632 8.12379 49.5363 21.8641 36.5726 45.4669C31.0298 55.5432 28.0218 65.7873 27.4873 74.7338C28.6325 66.8713 31.5184 58.276 36.1756 49.8028C49.2462 26.0015 71.341 12.1543 85.5263 18.8565ZM141.275 114.596C139.336 109.497 134.48 106.55 130.205 107.772V107.741C133.029 101.024 134.74 92.1993 134.74 82.5352C134.74 78.52 134.449 74.6422 133.9 71.0086C136.633 70.1384 140.053 71.314 142.298 74.1078C143.626 75.772 144.298 77.6956 144.344 79.5124C144.649 77.5124 144.222 75.2681 143 73.2224C140.572 69.1919 135.9 67.543 132.571 69.543C129.746 71.2376 128.8 74.9933 130.037 78.5658C129.487 76.0315 130.159 73.4972 132.037 71.9857C132.327 71.7415 132.648 71.543 132.984 71.3751C133.06 72.917 133.106 74.4895 133.106 76.0773C133.106 98.5351 125.074 116.749 115.149 116.749C108.919 116.749 103.422 109.543 100.2 98.6114C103.086 111.619 109.362 120.642 116.63 120.642C121.364 120.642 125.685 116.81 128.907 110.535C132.755 108.779 137.732 110.917 140.221 115.497C141.458 117.756 141.855 120.214 141.504 122.382C142.313 120.077 142.298 117.283 141.275 114.596ZM129.029 35.4212C136.709 35.4212 143.29 45.3601 145.947 59.4057V59.421C142.985 47.4364 137.244 39.3143 130.647 39.3143C121.028 39.3143 113.225 56.5813 113.225 77.8788C113.225 86.8558 114.599 95.1 116.92 101.65C113.194 94.7031 110.843 84.6116 110.843 73.3598C110.843 52.3981 118.982 35.4212 129.029 35.4212ZM96.8506 161.249C96.8423 161.215 96.834 161.18 96.8257 161.145L96.8104 161.13C96.8238 161.17 96.8372 161.21 96.8506 161.249ZM118.844 188.824C108.226 186.951 100.495 176.415 96.8506 161.249C100.964 173.428 108.064 181.685 117.378 183.328C137.03 186.794 159.018 159.527 166.515 122.428C169.187 109.207 169.645 96.5351 168.256 85.5276C170.775 97.7717 170.745 112.703 167.569 128.413C160.148 165.221 138.328 192.259 118.844 188.824ZM155.872 125.405C158.636 112.55 158.667 97.8023 157.063 84.5963H157.048C156.834 82.7795 156.575 80.9627 156.285 79.1307C157.735 92.4588 157.567 107.069 154.804 119.909C152.834 129.084 149.016 139.161 142.771 142.764C142.023 143.206 141.244 143.527 140.45 143.756C139.656 143.97 138.862 144.092 138.053 144.092C131.961 144.122 126.509 138.031 122.555 131.283C123.043 132.321 123.547 133.344 124.082 134.336C127.884 141.481 133.533 148.474 139.901 148.443C140.679 148.443 141.443 148.336 142.191 148.122C142.954 147.909 143.687 147.588 144.405 147.176C150.36 143.741 153.994 134.138 155.872 125.405ZM103.529 149.786C103.529 137.878 110.538 128.031 119.653 126.382C112.126 129.069 106.613 137.771 106.613 148.092C106.613 160.55 114.66 170.641 124.57 170.641C129.777 170.641 134.465 167.863 137.748 163.405C134.343 169.466 128.723 173.435 122.356 173.435C111.958 173.435 103.529 162.84 103.529 149.786ZM52.1016 114.596C54.0408 109.497 58.8965 106.55 63.1719 107.772V107.741C60.3471 101.024 58.6369 92.1993 58.6369 82.5352C58.6369 78.52 58.927 74.6422 59.4767 71.0086C56.7435 70.1384 53.3231 71.314 51.0785 74.1078C49.7501 75.772 49.0783 77.6956 49.0324 79.5124C48.7271 77.5124 49.1546 75.2681 50.3762 73.2224C52.804 69.1919 57.4764 67.543 60.8051 69.543C63.63 71.2376 64.5767 74.9933 63.3399 78.5658C63.8896 76.0315 63.2177 73.4972 61.3396 71.9857C61.0495 71.7415 60.7288 71.543 60.3929 71.3751C60.3165 72.917 60.2707 74.4895 60.2707 76.0773C60.2707 98.5351 68.3024 116.749 78.2275 116.749C84.4574 116.749 89.9544 109.543 93.1763 98.6114C90.2904 111.619 84.0146 120.642 76.7464 120.642C72.0129 120.642 67.6916 116.81 64.4698 110.535C60.6219 108.779 55.6441 110.917 53.1552 115.497C51.9184 117.756 51.5214 120.214 51.8726 122.382C51.0633 120.077 51.0785 117.283 52.1016 114.596ZM64.3476 35.4212C56.6671 35.4212 50.086 45.3601 47.4292 59.4057V59.421C50.3914 47.4364 56.1327 39.3143 62.7291 39.3143C72.3488 39.3143 80.1515 56.5813 80.1515 77.8788C80.1515 86.8558 78.7772 95.1 76.4563 101.65C80.182 94.7031 82.5335 84.6116 82.5335 73.3598C82.5335 52.3981 74.3949 35.4212 64.3476 35.4212ZM96.5258 161.249C96.5342 161.215 96.5425 161.18 96.5508 161.145L96.5661 161.13C96.5527 161.17 96.5393 161.21 96.5258 161.249ZM74.5323 188.824C85.1508 186.951 92.8813 176.415 96.5258 161.249C92.4122 173.428 85.3126 181.685 75.9982 183.328C56.3465 186.794 34.3586 159.527 26.8613 122.428C24.1891 109.207 23.7311 96.5351 25.1206 85.5276C22.6011 97.7717 22.6317 112.703 25.8077 128.413C33.2286 165.221 55.0486 192.259 74.5323 188.824ZM37.504 125.405C34.7403 112.55 34.7097 97.8023 36.313 84.5963H36.3283C36.5421 82.7795 36.8017 80.9627 37.0918 79.1307C35.6412 92.4588 35.8091 107.069 38.5729 119.909C40.5427 129.084 44.36 139.161 50.6052 142.764C51.3534 143.206 52.1321 143.527 52.9261 143.756C53.7201 143.97 54.5142 144.092 55.3234 144.092C61.4159 144.122 66.8671 138.031 70.8219 131.283C70.3333 132.321 69.8294 133.344 69.2949 134.336C65.4929 141.481 59.8432 148.474 53.4758 148.443C52.6971 148.443 51.9336 148.336 51.1854 148.122C50.422 147.909 49.689 147.588 48.9714 147.176C43.0163 143.741 39.3822 134.138 37.504 125.405Z" fill="black"/>
</svg>
