<svg width="132" height="132" viewBox="0 0 1320 1320" fill="none" xmlns="http://www.w3.org/2000/svg">
<path d="M154 775.775C154 892.289 207.311 1004.03 302.204 1086.42C397.098 1168.81 525.801 1215.09 660.001 1215.09C794.201 1215.09 922.904 1168.81 1017.8 1086.42C1112.69 1004.03 1166 892.289 1166 775.775C1165.91 752.679 1163.72 729.626 1159.45 706.829C1141.04 810.412 1080.58 904.868 988.996 973.146C897.408 1041.42 780.722 1079.02 660.004 1079.15C539.615 1079.09 423.195 1041.77 331.654 973.882C240.113 905.995 179.451 811.995 160.562 708.766C156.408 730.923 154.21 753.328 154 775.775Z" fill="white"/>
<path d="M419 307C384.268 307 356 396.74 356 507C356 617.259 384.268 707 419 707C453.732 707 482 617.259 482 507C482 396.74 453.732 307 419 307Z" fill="white"/>
<path d="M900 307C865.268 307 837 396.74 837 507C837 617.259 865.268 707 900 707C934.732 707 963 617.259 963 507C963 396.74 934.732 307 900 307Z" fill="white"/>
</svg>
